<?xml version="1.0" standalone="no"?>
<!DOCTYPE svg PUBLIC "-//W3C//DTD SVG 20010904//EN"
 "http://www.w3.org/TR/2001/REC-SVG-20010904/DTD/svg10.dtd">
<svg version="1.0" xmlns="http://www.w3.org/2000/svg"
 width="1024.000000pt" height="1024.000000pt" viewBox="130 80 900.000000 900.000000"
 preserveAspectRatio="xMidYMid meet">

<rect width="100%" height="100%" fill="#04f304"/>

<g transform="translate(0.000000,1024.000000) scale(0.100000,-0.100000)"
fill="#000000" stroke="none">
<path d="M4935 9403 c-473 -20 -997 -158 -1435 -377 -928 -466 -1594 -1255
-1873 -2221 -107 -368 -144 -664 -134 -1060 15 -543 124 -989 352 -1435 l56
-109 -87 -143 c-48 -79 -107 -176 -130 -217 l-43 -74 102 -64 c56 -36 106 -68
110 -72 4 -5 -20 -18 -55 -31 -135 -49 -354 -177 -417 -244 l-23 -25 91 -263
c50 -145 140 -409 201 -588 222 -649 221 -649 263 -696 46 -52 136 -99 232
-119 157 -33 504 -12 1235 75 85 10 158 16 162 13 5 -2 8 -14 8 -26 0 -33 65
-162 107 -214 48 -58 142 -124 218 -153 82 -31 227 -38 314 -16 123 32 219 94
293 192 l40 54 607 -1 606 0 45 -62 c179 -245 559 -266 781 -45 60 61 139 198
139 244 0 12 3 25 8 27 4 3 158 -12 342 -33 664 -75 888 -87 1048 -54 156 31
255 100 290 202 38 107 284 827 357 1042 40 118 90 262 110 320 l37 105 -43
38 c-135 120 -365 230 -641 306 l-96 26 65 95 c331 483 532 1033 594 1625 16
155 16 599 0 735 -87 731 -356 1365 -819 1927 -93 113 -322 345 -432 438 -256
215 -533 396 -805 526 -563 268 -1129 380 -1780 352z m515 -174 c63 -6 180
-22 260 -35 507 -87 955 -270 1400 -573 623 -423 1104 -1094 1298 -1811 20
-72 40 -180 24 -132 -4 13 -10 23 -14 23 -5 -1 -12 -1 -17 -1 -8 0 -25 54 -35
115 -2 17 -16 55 -30 85 -24 49 -26 51 -21 20 3 -19 -9 3 -25 50 -17 47 -28
91 -25 98 4 11 -19 82 -45 137 -5 11 -20 46 -34 78 -14 31 -27 57 -31 57 -3 0
1 -16 9 -35 27 -64 7 -36 -34 47 -23 45 -50 97 -61 115 -12 18 -19 39 -16 46
5 12 -43 110 -50 103 -2 -2 6 -21 18 -42 39 -68 4 -23 -81 106 -163 246 -348
460 -554 639 -212 184 -437 338 -383 261 7 -10 54 -50 105 -87 206 -154 409
-352 596 -583 122 -151 188 -248 180 -262 -4 -7 -2 -8 4 -4 11 7 17 -6 13 -27
-1 -5 2 -6 7 -3 18 11 148 -236 135 -257 -3 -5 -2 -7 4 -4 5 3 29 -33 53 -81
56 -113 113 -264 81 -212 -7 9 -9 -2 -7 -33 3 -30 0 -44 -7 -40 -6 3 -7 1 -3
-5 4 -7 14 -12 22 -12 8 0 12 -5 9 -11 -4 -6 0 -9 10 -7 10 2 20 -3 23 -11 3
-8 0 -11 -7 -7 -6 4 -11 2 -11 -3 0 -6 6 -11 13 -11 30 0 111 -329 138 -559
12 -104 12 -104 -12 -122 -21 -16 -42 -88 -22 -76 4 3 7 -52 6 -121 -1 -86 1
-119 7 -102 9 23 9 22 4 -5 -14 -77 -16 -146 -5 -159 6 -8 12 -35 13 -60 0
-28 4 -43 11 -39 13 8 0 -138 -14 -152 -6 -6 -7 3 -3 24 5 25 4 32 -4 27 -15
-9 -15 -38 -1 -70 12 -25 4 -120 -9 -112 -4 2 -7 -15 -7 -37 -1 -23 -5 -60 -9
-82 -7 -34 -10 -37 -17 -20 -7 15 -8 12 -4 -12 3 -25 1 -33 -10 -33 -8 0 -15
-5 -15 -11 0 -5 -5 -7 -11 -3 -8 4 -9 -1 -4 -16 5 -14 3 -20 -3 -16 -6 3 -13
0 -16 -6 -3 -7 -4 3 -1 22 6 45 2 35 -60 -147 -29 -84 -48 -153 -43 -153 4 0
8 -8 9 -17 0 -13 3 -11 11 7 11 25 12 25 15 3 3 -12 -1 -32 -7 -44 -9 -16 -9
-23 0 -29 8 -5 7 -9 -4 -13 -9 -4 -16 -12 -16 -19 0 -9 3 -8 10 2 5 8 10 11 9
5 0 -13 -38 -83 -39 -71 0 5 -9 -1 -20 -14 -11 -13 -20 -19 -20 -13 0 5 14 22
30 38 17 16 30 33 30 39 0 5 -9 0 -21 -12 -11 -12 -24 -20 -30 -17 -5 4 -13
-4 -17 -16 -6 -14 -11 -18 -16 -11 -4 6 -2 20 4 31 5 11 10 23 10 28 -1 13
-17 -18 -39 -76 l-21 -52 21 6 c17 6 20 4 13 -6 -5 -8 -7 -24 -6 -36 2 -12 -2
-30 -8 -40 -9 -16 -10 -15 -6 7 3 14 3 20 0 13 -3 -7 -12 -9 -20 -6 -16 6 -18
-6 -4 -41 7 -20 6 -24 -4 -20 -8 3 -17 0 -21 -6 -5 -8 -11 -8 -21 1 -12 9 -13
2 -10 -47 3 -46 2 -54 -7 -39 -19 35 -34 46 -41 30 -3 -8 -1 -17 4 -20 6 -4
10 -12 9 -18 0 -9 -2 -9 -6 1 -8 21 -19 13 -51 -38 -17 -28 -27 -50 -23 -50 5
0 12 -7 15 -16 3 -8 2 -13 -3 -10 -10 7 -21 -17 -21 -46 0 -19 -1 -19 -20 3
-10 13 -19 19 -20 14 0 -6 5 -16 10 -21 23 -23 -22 -76 -67 -78 -6 -1 -35 -30
-63 -66 -68 -86 -210 -240 -285 -311 -119 -112 -167 -149 -189 -144 -32 7
-222 33 -299 40 -76 7 -76 7 -35 88 10 21 72 161 137 310 154 353 147 339 189
362 54 29 75 75 67 153 -5 60 -5 62 18 62 38 0 90 41 114 90 12 25 36 97 54
160 17 63 40 147 51 185 23 83 19 138 -17 244 -28 82 -72 165 -138 260 l-45
64 1 492 c2 563 -3 529 88 537 37 4 58 12 79 33 26 25 30 36 30 86 0 32 -5 70
-12 84 -25 56 -13 55 -703 55 -575 0 -640 -2 -672 -17 -40 -18 -63 -62 -63
-117 0 -86 47 -126 148 -126 76 0 96 -9 111 -51 11 -32 16 -396 5 -434 -5 -19
-14 -20 -142 -21 -75 0 -154 -3 -175 -8 l-37 -7 2 1158 c3 1031 5 1162 19
1198 50 125 219 110 331 -30 151 -186 280 -637 306 -1068 10 -146 22 -174 88
-194 43 -13 217 -7 246 9 46 23 47 28 38 627 -11 694 -16 743 -94 828 -57 63
-83 78 -150 87 -27 3 -63 15 -80 25 -74 46 -472 208 -483 197 -3 -2 13 -10 34
-16 42 -14 193 -81 293 -130 36 -17 89 -40 118 -51 28 -11 52 -22 52 -24 0 -2
-15 -18 -32 -37 -18 -19 -41 -44 -51 -56 -11 -14 -22 -20 -30 -15 -7 4 -50 34
-97 65 -274 184 -686 164 -958 -46 -68 -52 -174 -162 -224 -231 -83 -117 -159
-291 -193 -444 -58 -265 -67 -442 -62 -1217 3 -543 7 -679 21 -774 23 -160 36
-221 53 -247 l15 -23 -83 -1 c-101 -1 -139 -13 -188 -61 -27 -28 -42 -36 -59
-31 -26 6 -27 14 -7 52 20 39 72 81 100 81 41 0 47 46 52 391 6 355 4 367 -62
395 -52 22 -163 18 -203 -6 -54 -33 -62 -67 -62 -260 0 -250 -20 -406 -76
-592 l-27 -86 -63 -33 c-36 -18 -65 -30 -67 -28 -1 2 -21 43 -44 91 -50 102
-100 163 -143 172 -17 3 -30 12 -30 20 0 30 -101 215 -132 241 -26 22 -38 26
-67 21 -20 -4 -55 -9 -78 -13 l-43 -6 0 1024 c1 563 5 1071 10 1128 22 244 78
317 235 309 95 -4 167 -42 246 -125 103 -110 204 -352 245 -583 20 -114 44
-375 44 -473 0 -75 2 -80 30 -107 56 -53 194 -53 253 0 l32 28 0 702 0 702
-33 29 c-30 27 -39 29 -107 29 -103 0 -138 -16 -169 -79 -14 -27 -30 -53 -36
-56 -6 -4 -36 10 -68 31 -85 57 -183 102 -269 126 -94 25 -317 30 -430 9 -66
-12 -73 -15 -97 -51 -66 -100 -292 -226 -451 -253 -16 -3 -39 -9 -49 -13 -15
-6 -17 -4 -11 7 18 28 -73 -52 -117 -103 -299 -352 -439 -805 -464 -1508 -9
-252 14 -576 56 -805 25 -134 77 -307 127 -425 45 -106 52 -116 68 -94 10 15
14 13 33 -18 12 -19 29 -42 39 -50 26 -24 20 -118 -7 -118 -10 0 -30 -15 -44
-32 l-26 -33 0 31 c0 36 -13 46 -108 87 -87 37 -366 117 -408 117 -75 0 -168
-66 -205 -145 -28 -61 -25 -143 7 -190 50 -75 80 -88 242 -105 184 -20 324
-38 329 -43 2 -3 -3 -41 -13 -86 l-17 -80 -121 -41 c-67 -22 -164 -51 -216
-64 -93 -23 -96 -24 -127 -70 -38 -56 -27 -71 -122 165 -102 254 -176 547
-213 839 -19 152 -16 524 6 680 58 421 182 800 363 1108 81 138 239 375 287
430 23 26 59 69 81 97 22 27 102 114 179 192 76 79 135 143 131 143 -4 0 -1 8
6 17 17 22 -93 -71 -179 -152 -129 -120 -355 -401 -486 -604 -59 -92 -188
-338 -222 -423 -99 -251 -141 -388 -183 -598 -89 -449 -78 -875 34 -1328 46
-184 93 -325 177 -521 48 -113 66 -167 59 -174 -7 -7 -26 22 -60 96 -127 269
-242 668 -276 949 -6 56 -38 113 -48 86 -10 -28 -19 257 -14 417 30 885 430
1694 1137 2304 77 67 136 121 131 121 -5 0 -13 -5 -16 -10 -5 -8 -11 -8 -19
-1 -7 6 -16 8 -19 4 -19 -18 -4 43 16 67 37 43 151 137 256 209 91 63 263 151
294 151 8 0 34 7 58 16 91 32 188 24 158 -12 -9 -11 3 -9 42 7 517 207 1097
290 1669 238z m2750 -2209 c0 -5 -4 -10 -10 -10 -5 0 -10 5 -10 10 0 6 5 10
10 10 6 0 10 -4 10 -10z m191 -365 c18 -78 39 -131 39 -99 0 5 8 10 18 11 10
1 19 -4 19 -10 0 -7 3 -27 8 -46 6 -28 5 -33 -8 -28 -9 3 -18 -1 -21 -9 -11
-28 -6 -62 9 -68 8 -3 15 -16 15 -30 0 -30 17 -43 23 -19 3 11 5 7 6 -10 1
-20 -3 -26 -11 -20 -7 4 -5 -5 5 -20 9 -14 17 -39 16 -54 0 -22 -2 -24 -8 -10
-6 17 -8 16 -19 -8 -8 -18 -9 -32 -2 -45 5 -10 7 -27 4 -37 -5 -15 -4 -15 5
-3 9 13 11 12 12 -5 l0 -20 9 20 c7 16 9 11 9 -22 1 -23 -4 -43 -9 -45 -12 -4
-17 -63 -25 -286 -3 -84 -9 -183 -14 -220 -5 -37 -15 -107 -21 -157 -49 -370
-228 -856 -437 -1188 -118 -186 -303 -422 -427 -542 -17 -17 -43 -45 -58 -63
-25 -30 -31 -32 -63 -26 l-36 6 100 102 c325 331 539 650 694 1036 133 330
204 646 228 1010 18 280 -11 626 -77 912 -15 62 -28 124 -30 138 -8 50 27 -56
47 -145z m-2056 -570 c83 -18 165 -56 183 -85 10 -17 10 -36 -4 -108 -16 -83
-16 -90 0 -124 20 -42 72 -81 145 -108 91 -35 154 -20 244 58 41 36 52 41 80
35 128 -24 272 -170 361 -366 54 -116 54 -144 2 -62 -34 53 -50 70 -68 70 -13
1 -22 6 -21 13 2 7 -4 12 -12 12 -8 0 -15 7 -15 15 0 8 -4 15 -10 15 -5 0 9
-34 30 -76 46 -87 50 -126 25 -246 -23 -112 -50 -164 -100 -188 -60 -29 -100
-26 -136 9 -16 16 -29 36 -29 44 0 8 -7 18 -15 21 -10 3 -15 1 -14 -7 2 -6 -1
-27 -5 -46 -6 -23 -11 -30 -16 -20 -11 17 -25 -34 -15 -58 5 -14 3 -15 -5 -6
-9 8 -9 28 0 83 7 39 9 86 6 105 -6 32 -8 33 -44 28 -20 -3 -55 -18 -77 -34
-22 -16 -58 -39 -80 -50 -22 -12 -50 -30 -62 -41 -20 -18 -75 -38 -115 -41
-10 -1 -18 -4 -18 -8 0 -4 -10 -5 -22 -1 -20 5 -21 4 -9 -11 12 -15 10 -18
-15 -28 -16 -6 -73 -19 -127 -29 -100 -18 -133 -30 -82 -30 16 0 26 -3 23 -6
-3 -3 -122 4 -264 16 -143 12 -290 24 -327 27 -53 5 -67 9 -63 20 3 7 50 87
104 176 119 194 182 312 182 338 0 30 -26 74 -55 93 -24 16 -29 15 -111 -14
-47 -16 -102 -30 -122 -29 -35 0 -36 1 -12 10 41 17 131 64 136 70 2 4 -16 4
-39 2 -38 -5 -45 -2 -59 20 -12 17 -30 26 -58 31 -50 8 -119 41 -127 61 -9 25
-24 16 -21 -12 2 -16 8 -27 14 -26 7 1 10 -6 7 -16 -3 -10 0 -22 6 -25 6 -4
11 -12 11 -17 0 -18 -17 0 -35 37 -19 41 -22 123 -5 154 6 12 42 41 80 66 40
26 106 84 157 139 99 107 151 139 268 161 84 16 249 11 350 -11z m439 -45 c40
-26 86 -67 116 -106 27 -35 64 -71 81 -79 29 -15 30 -17 13 -30 -46 -33 -147
27 -161 97 -8 39 -43 64 -109 79 -51 11 -57 11 -84 -9 -37 -28 -40 -28 -40 6
0 16 -7 37 -15 48 -30 40 -20 47 59 42 67 -4 82 -9 140 -48z m-2814 13 c-8 -3
-22 -11 -30 -18 -8 -7 -28 -17 -45 -24 -30 -11 -30 -11 8 -6 l37 6 0 -58 c0
-72 -13 -93 -93 -144 -60 -39 -84 -48 -71 -28 3 6 -9 3 -27 -6 -57 -29 -53
-33 8 -8 11 4 14 3 9 -5 -4 -7 -2 -12 6 -12 38 -2 -360 -136 -500 -169 -73
-17 -87 -18 -115 -6 -18 8 -28 14 -24 15 5 0 -11 16 -35 36 -23 20 -49 49 -55
64 -12 28 -12 29 45 61 137 76 243 122 409 179 202 69 413 129 458 128 17 0
23 -2 15 -5z m-371 -22 c9 -17 2 -21 -67 -46 -162 -58 -387 -161 -467 -214
-51 -34 -118 -64 -113 -52 1 5 39 39 82 75 89 74 262 166 416 221 110 39 135
42 149 16z m1861 -217 c0 -3 -11 -20 -25 -39 -14 -18 -29 -49 -32 -69 -3 -20
-8 -36 -12 -36 -3 0 -33 7 -66 15 -33 8 -76 14 -96 15 -28 0 -40 7 -58 31 -13
17 -19 35 -15 39 8 7 117 -4 155 -15 9 -3 35 10 60 30 38 30 89 47 89 29z
m-1332 -19 c-3 -3 -53 -25 -112 -49 l-106 -43 52 -6 c63 -8 88 -30 98 -86 5
-30 3 -49 -9 -71 -17 -32 -34 -43 -173 -115 -49 -25 -88 -47 -88 -49 0 -2 10
-2 23 0 13 3 8 -2 -13 -12 -19 -9 -47 -17 -62 -18 -14 0 -24 -3 -22 -6 3 -2
-48 -23 -113 -46 -81 -29 -124 -39 -139 -34 -11 5 -58 6 -105 3 -77 -5 -87 -3
-119 19 -47 32 -80 84 -80 125 0 36 17 47 135 90 l50 18 -40 5 c-37 5 -30 8
100 49 104 32 541 173 700 226 16 6 29 5 23 0z m1020 -77 c22 -22 12 -28 -53
-28 -50 0 -65 3 -65 14 0 23 98 34 118 14z m-163 -16 c-6 -5 -29 -23 -51 -40
-25 -19 -53 -55 -70 -87 -15 -31 -32 -58 -36 -61 -4 -3 -8 17 -8 44 0 41 5 55
37 91 20 24 46 47 57 51 27 11 83 12 71 2z m192 -59 c-3 -10 -5 -4 -5 12 0 17
2 24 5 18 2 -7 2 -21 0 -30z m-398 -29 c25 -5 30 -10 25 -23 -21 -47 -16 -80
14 -111 17 -16 39 -30 49 -30 10 0 92 21 183 46 161 44 166 44 206 29 52 -20
100 -66 115 -113 17 -50 16 -148 0 -197 -20 -57 -114 -147 -177 -169 -71 -24
-244 -39 -334 -28 -72 9 -69 9 70 11 151 1 220 8 220 21 0 5 -69 6 -152 4 -94
-3 -202 0 -278 9 -134 14 -215 9 -285 -19 -83 -33 -235 -49 -235 -25 1 23 32
117 46 139 10 16 23 66 30 119 16 131 49 193 126 243 110 71 279 113 377 94z
m-2141 -209 c140 -47 172 -62 172 -77 0 -10 -4 -18 -8 -18 -5 0 -73 20 -151
45 -133 42 -207 58 -156 34 14 -6 0 -8 -44 -4 -35 3 -75 5 -87 5 -32 0 -30 16
4 28 26 10 25 10 -15 11 -23 1 -49 4 -58 8 -15 5 -14 8 6 20 47 27 149 11 337
-52z m2940 0 c-3 -3 -9 2 -12 12 -6 14 -5 15 5 6 7 -7 10 -15 7 -18z m50 -100
c-3 -3 -9 2 -12 12 -6 14 -5 15 5 6 7 -7 10 -15 7 -18z m-2598 -25 c0 -27 3
-30 32 -30 56 0 115 -37 173 -110 30 -38 60 -72 67 -76 7 -4 91 -18 187 -30
97 -12 320 -40 496 -63 304 -39 463 -57 900 -101 528 -52 1528 -138 1990 -170
249 -17 258 -19 290 -45 17 -13 27 -26 24 -29 -3 -4 -62 -2 -130 4 -68 5 -216
17 -329 25 -113 8 -234 18 -270 20 -130 10 -908 75 -1010 85 -929 87 -1417
142 -1864 210 -110 16 -212 30 -227 30 -17 0 -32 8 -42 23 -55 82 -172 162
-247 169 l-35 3 -13 -60 c-22 -101 -31 -86 -29 48 2 113 4 127 20 127 12 0 17
-8 17 -30z m-130 10 c0 -5 10 -10 23 -10 25 0 66 -25 56 -34 -3 -4 -29 -1 -58
5 -46 10 -62 25 -44 42 10 10 23 8 23 -3z m1164 -61 c21 -16 26 -29 26 -62 -1
-43 -10 -65 -46 -110 l-21 -26 -179 25 c-208 28 -284 42 -284 53 0 14 168 78
340 129 62 18 134 14 164 -9z m-1121 -168 c9 -9 -14 -100 -33 -131 -3 -4 -30
-9 -60 -11 -53 -2 -55 -2 -52 22 11 97 46 144 101 135 19 -3 39 -10 44 -15z
m-169 -79 c-19 -73 -38 -108 -28 -52 11 64 37 145 41 132 3 -7 -3 -43 -13 -80z
m4154 69 c-1 -5 -28 -28 -58 -52 -30 -23 -46 -33 -36 -21 11 12 15 22 10 22
-5 0 2 10 16 21 14 11 18 17 10 13 -13 -7 -13 -5 -1 9 14 17 65 24 59 8z
m-3903 -105 c-2 -28 -7 -59 -10 -69 -7 -17 -10 -16 -35 8 -26 25 -27 29 -18
78 5 28 14 60 20 70 9 18 11 18 28 -8 13 -20 17 -42 15 -79z m35 0 c-29 -49
-35 -45 -10 5 12 23 24 38 27 35 3 -2 -5 -21 -17 -40z m2313 13 c6 -20 -7 -69
-18 -69 -3 0 -5 20 -5 45 0 47 14 61 23 24z m-2184 -111 c14 -35 57 -139 97
-233 39 -93 95 -226 124 -295 75 -180 240 -591 240 -600 0 -6 -63 -15 -355
-49 -110 -13 -162 -16 -166 -9 -4 6 -18 9 -33 6 -14 -3 -23 -1 -20 3 2 4 -18
5 -46 2 -40 -5 -54 -2 -70 12 -10 9 -24 14 -29 10 -13 -7 -43 19 -33 29 3 4
-2 4 -13 0 -15 -6 -17 -4 -11 11 11 30 155 283 202 357 79 123 77 113 55 230
-11 57 -23 126 -26 153 -13 110 -26 192 -37 232 -10 39 -8 46 13 78 13 19 27
35 32 35 13 0 7 47 -7 60 -12 9 -19 4 -36 -29 -11 -23 -25 -41 -31 -41 -7 0
-3 12 7 28 32 47 54 95 54 116 0 37 63 -38 89 -106z m4995 66 c3 -8 2 -12 -3
-9 -6 3 -14 -3 -20 -12 -11 -20 -15 -4 -5 21 8 20 20 20 28 0z m-5294 -60 c0
-4 -12 -28 -26 -54 -23 -42 -30 -48 -57 -46 -24 1 -34 -5 -48 -29 -9 -16 -20
-44 -23 -61 -9 -43 24 -84 67 -84 37 0 99 34 95 53 -1 6 4 27 11 46 13 29 12
37 -3 65 -16 31 -16 34 0 69 10 20 21 37 24 37 4 0 19 -17 33 -38 22 -31 32
-69 57 -222 16 -102 37 -224 46 -272 l16 -87 -72 -123 c-40 -68 -96 -163 -125
-213 -185 -321 -311 -533 -328 -552 -11 -13 -31 -23 -45 -23 -13 0 -96 45
-185 102 -208 131 -511 316 -559 341 -37 19 -47 32 -30 39 9 3 375 587 503
800 54 90 69 108 94 114 17 4 115 33 219 66 104 32 193 55 197 51 4 -4 15 -21
24 -38 l15 -30 -6 42 c-6 40 -5 42 22 46 48 7 84 7 84 1z m-29 -160 c6 -8 8
-25 5 -39 -12 -46 -86 -26 -86 24 0 35 56 45 81 15z m1366 -98 c13 -54 22
-100 21 -101 -2 0 -31 3 -64 8 l-62 8 5 42 c2 23 9 55 14 71 5 16 9 40 9 53 0
20 4 24 26 21 25 -3 28 -10 51 -102z m-541 86 c6 -4 15 -23 19 -42 4 -19 12
-40 17 -47 5 -7 7 -17 3 -23 -4 -6 5 -10 21 -10 15 0 25 -3 21 -6 -3 -4 -21
-4 -40 0 -34 6 -37 10 -101 109 l-18 27 33 0 c19 0 39 -4 45 -8z m891 -28
c185 -21 166 -6 178 -137 l7 -69 -84 7 c-154 12 -281 25 -286 30 -4 4 -41 170
-42 189 0 5 15 6 33 3 17 -3 105 -13 194 -23z m-563 6 c19 -7 26 -17 26 -37 0
-40 -11 -52 -42 -46 -26 5 -68 55 -68 82 0 14 50 14 84 1z m4061 -41 c-5 -15
-4 -19 4 -15 6 4 11 3 11 -3 0 -5 -4 -12 -9 -15 -12 -8 -22 20 -15 39 9 23 16
18 9 -6z m-3136 -8 c11 -7 8 -11 -10 -17 l-24 -7 27 -7 c14 -4 64 -11 110 -15
98 -9 118 -17 118 -50 0 -13 -8 -40 -17 -59 l-18 -36 -110 7 c-60 3 -112 8
-114 10 -3 2 -7 44 -9 93 -4 83 -3 90 14 90 11 0 25 -4 33 -9z m884 -78 c-7
-2 -19 -2 -25 0 -7 3 -2 5 12 5 14 0 19 -2 13 -5z m171 -9 c9 -3 16 -11 16
-16 0 -6 -7 -8 -14 -5 -10 4 -13 1 -10 -7 5 -13 124 -35 277 -52 42 -5 62 -12
72 -27 13 -19 14 -19 13 -1 0 10 2 26 6 35 7 17 -22 34 -74 42 -14 3 4 3 40 0
35 -2 66 -6 68 -8 7 -7 -31 -105 -41 -105 -4 0 -5 -6 -1 -12 5 -9 2 -8 -9 1
-15 12 -17 12 -11 -3 5 -14 -3 -16 -57 -16 -82 1 -319 17 -325 22 -2 3 3 30
11 62 8 31 15 66 15 76 0 22 1 23 24 14z m74 -11 c-10 -2 -26 -2 -35 0 -10 3
-2 5 17 5 19 0 27 -2 18 -5z m-290 -26 l42 1 -6 -37 c-13 -78 -8 -74 -95 -68
-45 4 -85 12 -96 21 -10 8 -33 27 -50 41 -18 15 -33 34 -33 42 0 14 12 15 98
8 53 -5 116 -8 140 -8z m-218 -91 c0 -4 -124 6 -129 10 -2 2 9 18 25 37 l29
33 38 -39 c20 -21 37 -40 37 -41z m2420 69 c0 -8 -4 -15 -10 -15 -5 0 -10 7
-10 15 0 8 5 15 10 15 6 0 10 -7 10 -15z m-4154 -78 c1 -1 13 -38 28 -82 25
-76 34 -122 16 -80 -7 16 -9 17 -9 3 -2 -41 -24 -23 -63 54 -66 129 -65 122
-16 114 23 -4 43 -8 44 -9z m453 -43 c4 -4 51 -222 51 -239 0 -6 -22 -8 -56
-5 -46 4 -61 10 -76 30 -25 34 -32 85 -23 165 l7 66 46 -7 c26 -4 49 -8 51
-10z m432 -35 c1 0 5 -54 9 -119 l7 -118 -158 7 c-88 4 -160 8 -161 9 -3 1
-53 235 -53 245 0 4 350 -19 356 -24z m432 -35 c45 -1 53 -4 50 -18 -3 -16
-16 -18 -108 -16 -68 1 -91 -1 -65 -6 52 -9 85 -28 85 -48 0 -9 -3 -14 -6 -11
-3 3 -16 -4 -30 -17 -40 -37 -88 -55 -147 -55 l-55 0 -6 63 c-4 34 -9 78 -12
97 l-5 36 123 -13 c68 -6 147 -12 176 -12z m2683 2 c11 -15 11 -16 -1 -6 -11
10 -16 9 -27 -5 -13 -15 -13 -15 -3 6 13 27 14 27 31 5z m-2228 -29 l109 -7
-6 -31 c-3 -17 -13 -64 -22 -105 l-17 -73 -45 6 c-24 3 -101 6 -169 6 l-124 0
5 55 c3 30 9 80 12 111 l6 56 71 -6 c40 -3 121 -8 180 -12z m411 -32 c5 -3 1
-11 -8 -18 -21 -15 -14 -20 39 -28 22 -4 46 -11 54 -15 22 -14 3 -47 -37 -64
-65 -28 -77 -28 -128 -2 -58 30 -73 32 -51 7 22 -24 21 -34 -1 -52 -20 -17
-72 -24 -72 -10 0 8 24 130 35 178 6 23 8 23 83 17 42 -4 81 -10 86 -13z
m1761 -2 c3 -5 -1 -10 -9 -10 -9 0 -16 5 -16 10 0 6 4 10 9 10 6 0 13 -4 16
-10z m-1337 -20 c45 -1 27 -14 -37 -29 -36 -8 -42 -7 -37 6 3 8 6 19 6 25 0 6
7 7 16 4 9 -3 32 -6 52 -6z m1322 -10 c0 -5 -4 -10 -10 -10 -5 0 -10 5 -10 10
0 6 5 10 10 10 6 0 10 -4 10 -10z m-22 -36 c8 -16 8 -21 -3 -21 -7 0 -11 6 -8
14 3 7 0 13 -7 13 -6 0 -8 5 -5 11 8 12 8 11 23 -17z m-66 -16 c-7 -7 -12 -8
-12 -2 0 14 12 26 19 19 2 -3 -1 -11 -7 -17z m-3812 -154 c0 -2 -7 -4 -15 -4
-8 0 -15 4 -15 10 0 5 7 7 15 4 8 -4 15 -8 15 -10z m450 -94 c6 -38 9 -73 6
-79 -3 -5 0 -12 6 -14 7 -3 -13 -6 -45 -6 -51 -1 -60 2 -64 19 -3 11 -9 20
-13 20 -5 0 -12 9 -15 20 -3 11 -13 20 -20 20 -8 0 -16 4 -19 9 -4 5 2 7 12 4
10 -2 30 1 46 7 23 9 26 13 16 25 -10 12 -10 15 0 15 7 0 10 7 6 15 -4 12 3
15 33 15 l39 0 12 -70z m388 50 l42 0 0 -65 0 -65 -32 1 c-31 2 -31 2 -5 6 23
4 27 9 27 37 l0 33 -61 7 c-34 3 -92 6 -128 6 l-66 -1 35 -16 c19 -8 29 -17
23 -20 -19 -7 -16 -23 5 -24 11 -1 9 -4 -8 -9 -28 -9 -63 -12 -42 -3 6 2 12
12 12 20 0 11 -3 13 -13 5 -10 -8 -13 -5 -15 15 -3 37 -12 42 -13 7 -1 -29 -1
-29 -8 -4 -4 14 -11 38 -15 54 l-7 29 113 -6 c62 -4 132 -7 156 -7z m379 -16
c17 -5 20 -10 14 -23 -8 -14 -25 -16 -115 -13 -97 3 -106 5 -106 23 0 17 8 19
93 19 50 0 102 -3 114 -6z m561 -29 c2 -2 0 -24 -3 -49 -5 -33 -12 -46 -24
-46 -14 0 -14 2 -1 10 13 8 12 10 -5 11 -18 1 -18 2 -2 6 10 3 16 10 14 16 -2
8 -49 14 -138 18 -74 4 -140 7 -146 8 -7 0 -13 11 -13 22 0 22 1 22 157 15 87
-4 159 -9 161 -11z m479 -18 c3 -4 3 -10 0 -14 -8 -8 -175 -25 -304 -31 -24
-2 -33 -7 -33 -19 0 -9 -3 -14 -6 -10 -4 3 -4 25 0 49 l6 43 165 -6 c91 -3
168 -8 172 -12z m223 -1 c0 -2 -18 -6 -40 -8 -22 -2 -40 0 -40 4 0 5 18 8 40
8 22 0 40 -2 40 -4z m-2412 -33 c8 -8 10 -22 6 -38 -8 -31 -9 -30 -29 18 -16
38 -6 47 23 20z m707 -37 c11 -2 -20 -4 -70 -4 -49 0 -82 2 -73 6 16 7 98 5
143 -2z m-1728 -126 c14 -11 22 -20 17 -20 -12 1 -61 39 -51 40 5 0 20 -9 34
-20z m-117 -9 c0 -6 -4 -13 -10 -16 -5 -3 -10 1 -10 9 0 9 5 16 10 16 6 0 10
-4 10 -9z m2765 -1 c667 -27 1215 -82 1755 -176 417 -72 646 -119 1016 -210
122 -30 229 -54 238 -54 9 0 16 -4 16 -8 0 -8 -48 -150 -110 -327 -63 -180
-280 -824 -295 -876 -13 -46 -23 -62 -53 -83 -46 -31 -74 -32 -190 -6 -809
180 -1514 270 -2422 311 -529 24 -1266 -4 -1875 -71 -450 -50 -1042 -148
-1393 -231 -136 -32 -163 -34 -195 -18 -26 14 -66 59 -67 76 0 7 -41 133 -90
280 -50 148 -140 414 -199 593 -60 179 -112 332 -116 341 -5 13 2 18 32 23 21
4 119 26 218 51 99 24 233 55 297 70 l116 27 31 -21 c17 -13 31 -26 31 -30 0
-8 -68 -25 -428 -107 -171 -40 -212 -52 -208 -64 19 -58 112 -317 151 -420 26
-69 74 -201 106 -295 127 -372 142 -411 159 -429 17 -18 20 -18 101 3 391 96
1047 198 1604 250 498 47 699 56 1270 56 757 0 1176 -28 1934 -130 151 -20
585 -93 635 -106 22 -6 60 -14 85 -18 26 -5 113 -23 196 -40 179 -39 163 -47
219 116 54 158 259 725 351 971 l23 62 -26 0 c-28 0 -97 15 -344 75 -176 42
-323 71 -621 125 -1140 204 -2268 266 -3383 185 -472 -35 -901 -88 -1506 -190
l-27 -4 31 49 c27 44 35 50 64 50 18 0 147 18 286 39 539 84 949 128 1423 151
405 20 824 24 1160 10z m-2725 -56 c0 -2 -7 -4 -15 -4 -8 0 -15 4 -15 10 0 5
7 7 15 4 8 -4 15 -8 15 -10z m3069 -195 c280 -70 452 -264 438 -494 -8 -140
-58 -236 -172 -328 -116 -93 -277 -134 -493 -124 -210 9 -344 61 -460 177
-177 177 -175 458 5 632 151 146 426 202 682 137z m-919 -442 l0 -464 -172 -6
c-94 -4 -173 -5 -175 -4 -1 2 -6 82 -9 178 l-7 174 -101 -3 c-56 -1 -134 -5
-175 -8 l-74 -6 8 -174 c4 -96 3 -174 -2 -175 -4 0 -82 -6 -173 -13 -91 -7
-166 -12 -167 -11 -2 1 -9 113 -17 251 -9 137 -21 339 -27 450 -7 110 -10 207
-7 215 5 12 42 18 178 27 95 6 177 9 181 6 5 -3 9 -56 9 -118 0 -62 3 -134 6
-160 l7 -46 72 0 c39 0 120 3 179 7 l107 6 -1 161 c-1 89 -1 164 -1 169 1 4
82 7 181 7 l180 0 0 -463z m1780 367 c329 -37 431 -63 536 -135 102 -70 148
-159 143 -277 -3 -66 -9 -86 -34 -127 -68 -110 -164 -150 -355 -150 -69 0
-157 3 -196 7 l-71 8 -6 -126 c-3 -69 -8 -128 -11 -131 -5 -5 -339 26 -345 33
-3 3 1 120 7 262 7 141 15 345 18 452 3 107 7 200 9 207 2 7 18 10 42 7 21 -2
139 -16 263 -30z m-3193 -10 c99 -20 189 -59 176 -76 -5 -7 -40 -57 -77 -110
l-66 -96 -59 23 c-155 63 -381 46 -381 -29 0 -33 33 -44 180 -56 242 -20 341
-45 407 -103 105 -92 95 -263 -20 -363 -141 -123 -445 -183 -700 -139 -94 16
-227 62 -227 77 0 6 33 57 73 114 47 69 77 102 87 99 8 -2 45 -15 82 -29 180
-68 418 -51 418 30 0 38 -44 50 -220 62 -265 18 -368 55 -417 152 -30 60 -31
156 -3 216 53 109 219 205 410 237 65 11 266 6 337 -9z m-1470 -776 c-3 -8 -6
-5 -6 6 -1 11 2 17 5 13 3 -3 4 -12 1 -19z m5624 -76 l41 -16 -47 -23 c-28
-15 -50 -34 -56 -50 l-10 -27 -21 35 c-26 43 -20 39 -65 54 l-38 14 32 7 c32
6 82 63 84 95 0 7 9 -5 20 -29 15 -34 27 -47 60 -60z m-5374 -8 l23 -6 -20
-22 c-11 -11 -27 -30 -36 -41 -9 -12 -17 -16 -20 -9 -18 41 -32 49 -93 47 -34
0 -59 3 -55 8 3 5 23 9 45 9 56 0 77 14 85 58 10 58 17 60 33 9 11 -35 21 -49
38 -53z m4761 -148 c13 -28 7 -36 -25 -36 -25 0 -26 3 -17 38 8 29 28 28 42
-2z m-3233 -266 c-3 -5 -11 -10 -16 -10 -6 0 -7 5 -4 10 3 6 11 10 16 10 6 0
7 -4 4 -10z m-59 -34 c-1 -8 -7 -20 -13 -27 -32 -41 -47 -88 -47 -154 -1 -59
3 -77 27 -117 47 -80 136 -128 239 -128 64 0 92 13 149 67 51 49 83 111 80
156 -1 19 2 26 10 22 15 -10 3 -89 -21 -135 -24 -47 -44 -64 -115 -96 -135
-62 -303 -12 -368 109 -31 60 -31 175 1 235 12 23 28 42 34 42 6 0 8 3 5 7 -4
3 -2 12 4 20 14 17 18 16 15 -1z m274 -54 c42 -23 46 -33 22 -62 -28 -34 -94
-30 -142 9 -40 33 -42 41 -9 58 35 18 89 16 129 -5z m2128 -2 c39 -24 40 -32
5 -60 -23 -18 -37 -21 -76 -17 -47 4 -87 29 -87 53 0 19 49 43 90 44 19 0 50
-9 68 -20z m192 -127 c0 -83 -21 -133 -81 -186 -86 -77 -198 -93 -301 -43 -89
42 -148 131 -148 222 0 55 17 47 24 -12 6 -54 35 -126 56 -139 6 -4 8 -10 6
-14 -3 -4 21 -20 52 -36 76 -39 161 -45 223 -17 43 19 130 82 113 82 -4 0 0 6
9 13 33 24 39 143 13 250 -3 12 3 4 14 -18 13 -26 20 -61 20 -102z"/>
<path d="M5310 9136 c91 -8 203 -21 249 -30 88 -17 137 -20 86 -6 -63 18 -251
41 -373 45 l-127 4 165 -13z"/>
<path d="M5688 9083 c7 -3 16 -2 19 1 4 3 -2 6 -13 5 -11 0 -14 -3 -6 -6z"/>
<path d="M5728 9073 c7 -3 16 -2 19 1 4 3 -2 6 -13 5 -11 0 -14 -3 -6 -6z"/>
<path d="M8290 6995 c0 -5 5 -17 10 -25 5 -8 10 -10 10 -5 0 6 -5 17 -10 25
-5 8 -10 11 -10 5z"/>
<path d="M8332 6440 c0 -14 2 -19 5 -12 2 6 2 18 0 25 -3 6 -5 1 -5 -13z"/>
<path d="M8330 6386 c0 -8 4 -17 9 -20 5 -4 7 3 4 14 -6 23 -13 26 -13 6z"/>
<path d="M1782 5800 c0 -14 2 -19 5 -12 2 6 2 18 0 25 -3 6 -5 1 -5 -13z"/>
<path d="M8116 4802 c-2 -4 -1 -14 3 -21 6 -10 10 -9 14 3 6 16 -8 32 -17 18z"/>
<path d="M7960 4540 c0 -5 5 -10 10 -10 6 0 10 5 10 10 0 6 -4 10 -10 10 -5 0
-10 -4 -10 -10z"/>
<path d="M7729 4193 c-13 -16 -12 -17 4 -4 9 7 17 15 17 17 0 8 -8 3 -21 -13z"/>
<path d="M6221 6026 c10 -8 162 -66 166 -63 4 5 -143 67 -158 67 -7 0 -10 -2
-8 -4z"/>
<path d="M7118 5543 c25 -36 82 -86 89 -79 8 8 -4 22 -59 68 -49 40 -51 41
-30 11z"/>
<path d="M5945 5267 c-42 -76 -58 -118 -30 -79 9 12 29 36 45 53 20 22 28 41
27 65 -1 19 -1 34 -1 34 -1 0 -19 -33 -41 -73z"/>
<path d="M3625 5330 c-3 -5 1 -10 9 -10 8 0 18 5 21 10 3 6 -1 10 -9 10 -8 0
-18 -4 -21 -10z"/>
<path d="M4960 5440 c-19 -11 -29 -19 -22 -20 14 0 72 28 72 35 0 9 -15 4 -50
-15z"/>
<path d="M5286 5447 c3 -9 1 -24 -6 -32 -11 -13 -11 -20 0 -39 6 -13 12 -55
13 -92 0 -71 -3 -90 -17 -112 -4 -7 -6 -16 -3 -19 3 -2 10 5 17 16 6 12 8 21
6 21 -3 0 6 20 19 44 36 65 29 167 -15 210 -17 17 -20 18 -14 3z"/>
<path d="M2398 5413 c7 -3 16 -2 19 1 4 3 -2 6 -13 5 -11 0 -14 -3 -6 -6z"/>
<path d="M2764 3855 c-16 -19 -49 -59 -74 -90 -25 -31 -62 -66 -83 -78 -20
-11 -46 -35 -56 -53 -27 -45 -114 -78 -206 -78 -67 -1 -74 2 -155 51 -118 72
-141 77 -45 10 116 -81 120 -84 115 -90 -5 -5 -166 87 -270 154 -30 19 -73 45
-95 58 -83 48 8 -16 148 -104 157 -98 387 -246 429 -276 l27 -19 22 38 c13 20
28 40 33 44 7 5 7 8 1 8 -5 0 -2 7 9 15 10 7 16 17 13 22 -8 13 132 280 211
401 22 33 8 26 -24 -13z"/>
<path d="M1794 3836 c-18 -8 -34 -18 -37 -24 -6 -9 42 -37 50 -28 2 2 -5 7
-16 11 -28 8 -15 28 13 21 17 -4 22 -1 23 14 1 11 1 20 0 20 -1 -1 -16 -7 -33
-14z"/>
<path d="M2546 3834 c-16 -9 -49 -20 -75 -24 -42 -7 -43 -8 -11 -9 32 0 120
31 120 44 0 7 -1 7 -34 -11z"/>
<path d="M2658 3612 c-30 -44 -80 -142 -74 -142 2 0 21 30 42 68 20 37 44 77
52 90 8 12 12 22 9 22 -2 0 -16 -17 -29 -38z"/>
<path d="M8088 3323 c7 -3 16 -2 19 1 4 3 -2 6 -13 5 -11 0 -14 -3 -6 -6z"/>
<path d="M8138 3313 c7 -3 16 -2 19 1 4 3 -2 6 -13 5 -11 0 -14 -3 -6 -6z"/>
<path d="M5648 3166 c-96 -34 -141 -95 -146 -197 -3 -55 0 -77 18 -113 42 -88
131 -139 245 -140 155 -2 254 87 255 227 0 67 -17 106 -68 160 -66 68 -207 98
-304 63z"/>
<path d="M6847 2988 c-3 -57 -3 -106 1 -109 4 -4 52 -10 107 -13 116 -8 141 0
168 56 16 33 17 40 3 71 -23 57 -68 76 -212 92 l-61 7 -6 -104z"/>
</g>
</svg>